# xmcd
#
# Track frame offsets:
#	150
#	16790
#	54227
#	73890
#	107498
#	125935
#	147916
#	167718
#	210172
#	230625
#	246855
#	269208
#	291624
#	310731
#	321770
#
# Disc length: 4514 seconds
#
# Revision: 1
# Processed by: cddbd v1.5.2PL0 Copyright (c) Steve Scherf et al.
# Submitted via: audiograbber 1.83.01
#
DISCID=e611a00f
DTITLE=Lonnie Mack - The Best Of: The Alligator Records Years
DYEAR=2014
DGENRE=Blues Rock
TTITLE0=Strike Like Lightning
TTITLE1=Cincinnati Jail
TTITLE2=Natural Disaster
TTITLE3=I Found A Love
TTITLE4=Hound Dog Man
TTITLE5=Oreo Cookie Blues
TTITLE6=Riding The Blinds
TTITLE7=Stop
TTITLE8=If You Have To Know
TTITLE9=Double Whammy
TTITLE10=Fall Back In Love With You
TTITLE11=Satisfy Suzie
TTITLE12=Tough On Me, Tough On You
TTITLE13=Camp Washington Chili
TTITLE14=A Song I Haven't Sung
EXTD=
EXTT0=
EXTT1=
EXTT2=
EXTT3=
EXTT4=
EXTT5=
EXTT6=
EXTT7=
EXTT8=
EXTT9=
EXTT10=
EXTT11=
EXTT12=
EXTT13=
EXTT14=
PLAYORDER=
